<?xml version="1.0" encoding="utf-8"?>
<!-- Generator: Adobe Illustrator 18.0.0, SVG Export Plug-In . SVG Version: 6.00 Build 0)  -->
<!DOCTYPE svg PUBLIC "-//W3C//DTD SVG 1.1//EN" "http://www.w3.org/Graphics/SVG/1.1/DTD/svg11.dtd">
<svg version="1.1" id="Camada_1" xmlns="http://www.w3.org/2000/svg" xmlns:xlink="http://www.w3.org/1999/xlink" x="0px" y="0px"
	 viewBox="0 0 64 64" enable-background="new 0 0 64 64" xml:space="preserve">
<circle opacity="0" fill="#F08025" cx="32" cy="31.9" r="32"/>
<g>
	<path fill="#FFFFFF" d="M10.5,40c0.1,0,0.2-0.1,0.2-0.2l0.5-4.3l-0.5-4.4c0-0.1-0.1-0.2-0.2-0.2c-0.1,0-0.2,0.1-0.2,0.2l-0.5,4.4
		l0.5,4.3C10.3,39.9,10.4,40,10.5,40z"/>
	<path fill="#FFFFFF" d="M8.7,38.4c0.1,0,0.2-0.1,0.2-0.2l0.4-2.7l-0.4-2.7c0-0.1-0.1-0.2-0.2-0.2c-0.1,0-0.2,0.1-0.2,0.2l-0.3,2.7
		l0.3,2.7C8.5,38.3,8.6,38.4,8.7,38.4z"/>
	<path fill="#FFFFFF" d="M12.6,30.4c0-0.1-0.1-0.2-0.2-0.2c-0.1,0-0.2,0.1-0.2,0.2l-0.5,5.2l0.5,5c0,0.1,0.1,0.2,0.2,0.2
		c0.1,0,0.2-0.1,0.2-0.2l0.5-5L12.6,30.4z"/>
	<path fill="#FFFFFF" d="M14.3,41c0.1,0,0.3-0.1,0.3-0.3l0.5-5.2l-0.5-5.3c0-0.2-0.1-0.3-0.3-0.3c-0.2,0-0.3,0.1-0.3,0.3l-0.4,5.3
		l0.4,5.2C14,40.9,14.1,41,14.3,41z"/>
	<path fill="#FFFFFF" d="M16.2,41.1c0.2,0,0.3-0.1,0.3-0.3l0,0l0.5-5.2l-0.5-5c0-0.2-0.2-0.3-0.3-0.3c-0.2,0-0.3,0.1-0.3,0.3
		l-0.4,4.9l0.4,5.2C15.9,40.9,16,41.1,16.2,41.1z"/>
	<path fill="#FFFFFF" d="M18.9,35.6l-0.4-8c0-0.2-0.2-0.4-0.4-0.4c-0.2,0-0.4,0.2-0.4,0.4l-0.4,8l0.4,5.2c0,0.2,0.2,0.4,0.4,0.4
		c0.2,0,0.4-0.2,0.4-0.4v0L18.9,35.6z"/>
	<path fill="#FFFFFF" d="M20.1,41.1c0.2,0,0.4-0.2,0.4-0.4v0l0.4-5.2l-0.4-9.9c0-0.2-0.2-0.4-0.4-0.4c-0.2,0-0.4,0.2-0.4,0.4
		l-0.4,9.9l0.4,5.2C19.7,41,19.9,41.1,20.1,41.1z"/>
	<path fill="#FFFFFF" d="M22.1,24.4c-0.2,0-0.4,0.2-0.4,0.4l-0.3,10.7l0.3,5.1c0,0.2,0.2,0.4,0.4,0.4c0.2,0,0.4-0.2,0.4-0.4v0
		l0.4-5.1l-0.4-10.7C22.5,24.6,22.3,24.4,22.1,24.4z"/>
	<path fill="#FFFFFF" d="M24.1,41.1c0.3,0,0.5-0.2,0.5-0.5v0l0.3-5.1l-0.3-11.1c0-0.3-0.2-0.5-0.5-0.5c-0.3,0-0.5,0.2-0.5,0.5
		l-0.3,11.1l0.3,5.1C23.6,40.9,23.8,41.1,24.1,41.1z"/>
	<path fill="#FFFFFF" d="M26,41.1c0.3,0,0.5-0.2,0.5-0.5v0l0.3-5l-0.3-10.8c0-0.3-0.2-0.5-0.5-0.5c-0.3,0-0.5,0.2-0.5,0.5l-0.3,10.8
		l0.3,5C25.5,40.9,25.8,41.1,26,41.1z"/>
	<path fill="#FFFFFF" d="M28.9,35.6l-0.3-10.4c0-0.3-0.3-0.6-0.6-0.6c-0.3,0-0.6,0.3-0.6,0.6l-0.3,10.4l0.3,5c0,0.3,0.3,0.6,0.6,0.6
		c0.3,0,0.6-0.3,0.6-0.6v0L28.9,35.6z"/>
	<path fill="#FFFFFF" d="M30.1,41.1c0.3,0,0.6-0.3,0.6-0.6v0l0.3-5l-0.3-12.4c0-0.3-0.3-0.6-0.6-0.6c-0.3,0-0.6,0.3-0.6,0.6
		l-0.2,12.4l0.2,5C29.5,40.9,29.8,41.1,30.1,41.1z"/>
	<path fill="#FFFFFF" d="M32.1,21.4c-0.4,0-0.6,0.3-0.7,0.7l-0.3,13.5l0.3,4.9c0,0.4,0.3,0.7,0.7,0.7c0.4,0,0.6-0.3,0.6-0.7v0
		l0.3-4.9l-0.3-13.5C32.8,21.7,32.5,21.4,32.1,21.4z"/>
	<path fill="#FFFFFF" d="M34,41.2c0,0,16.3,0,16.4,0c3.3,0,5.9-2.7,5.9-6c0-3.3-2.6-6-5.9-6c-0.8,0-1.6,0.2-2.3,0.5
		c-0.5-5.4-4.9-9.6-10.4-9.6c-1.3,0-2.6,0.3-3.8,0.7c-0.4,0.2-0.6,0.4-0.6,0.7v19C33.3,40.8,33.6,41.1,34,41.2z"/>
</g>
</svg>
