<?xml version="1.0" encoding="utf-8"?>
<!-- Generator: Adobe Illustrator 18.0.0, SVG Export Plug-In . SVG Version: 6.00 Build 0)  -->
<!DOCTYPE svg PUBLIC "-//W3C//DTD SVG 1.1//EN" "http://www.w3.org/Graphics/SVG/1.1/DTD/svg11.dtd">
<svg version="1.1" id="Camada_1" xmlns="http://www.w3.org/2000/svg" xmlns:xlink="http://www.w3.org/1999/xlink" x="0px" y="0px"
	 viewBox="0 0 64 64" enable-background="new 0 0 64 64" xml:space="preserve">
<circle opacity="0" fill="#65C7EC" cx="32" cy="32" r="32"/>
<path fill="#FFFFFF" d="M51.2,22.3c-1.4,0.6-2.9,1.1-4.5,1.2c1.6-1,2.9-2.5,3.5-4.4c-1.5,0.9-3.2,1.6-5,1.9
	c-1.4-1.5-3.5-2.5-5.8-2.5c-4.4,0-7.9,3.5-7.9,7.9c0,0.6,0.1,1.2,0.2,1.8C25.1,28,19.3,24.8,15.4,20c-0.7,1.2-1.1,2.5-1.1,4
	c0,2.7,1.4,5.2,3.5,6.6c-1.3,0-2.5-0.4-3.6-1v0.1c0,3.8,2.7,7,6.3,7.7c-0.7,0.2-1.4,0.3-2.1,0.3c-0.5,0-1-0.1-1.5-0.1
	c1,3.1,3.9,5.4,7.4,5.5c-2.7,2.1-6.1,3.4-9.8,3.4c-0.6,0-1.3,0-1.9-0.1c3.5,2.2,7.6,3.5,12.1,3.5c14.5,0,22.5-12,22.5-22.5
	c0-0.3,0-0.7,0-1C48.8,25.3,50.2,23.9,51.2,22.3z"/>
</svg>
