<?xml version="1.0" encoding="utf-8"?>
<!-- Generator: Adobe Illustrator 18.0.0, SVG Export Plug-In . SVG Version: 6.00 Build 0)  -->
<!DOCTYPE svg PUBLIC "-//W3C//DTD SVG 1.1//EN" "http://www.w3.org/Graphics/SVG/1.1/DTD/svg11.dtd">
<svg version="1.1" id="Camada_1" xmlns="http://www.w3.org/2000/svg" xmlns:xlink="http://www.w3.org/1999/xlink" x="0px" y="0px"
	 viewBox="0 0 64 64" enable-background="new 0 0 64 64" xml:space="preserve">
<circle opacity="0" fill="#BB1F1D" cx="32" cy="32" r="32"/>
<path fill="#FFFFFF" d="M28,8.7h-2.6l-1.8,6.8l-1.8-6.8H19c0.5,1.6,1.1,3.2,1.7,4.8c0.8,2.4,1.4,4.3,1.6,5.5v7h2.6v-7L28,8.7z
	 M34.9,21.9v-4.5c0-1.4-0.2-2.4-0.7-3.1c-0.7-0.9-1.6-1.3-2.7-1.3c-1.2,0-2.1,0.4-2.7,1.3C28.2,15,28,16,28,17.4v4.5
	c0,1.4,0.2,2.4,0.7,3c0.6,0.9,1.6,1.3,2.7,1.3c1.2,0,2.1-0.4,2.7-1.3C34.7,24.3,34.9,23.3,34.9,21.9z M32.6,22.4
	c0,1.2-0.4,1.8-1.1,1.8c-0.8,0-1.1-0.6-1.1-1.8v-5.5c0-1.2,0.4-1.8,1.1-1.8c0.8,0,1.1,0.6,1.1,1.8V22.4z M43.6,26.1v-13h-2.3v9.9
	c-0.5,0.7-1,1.1-1.5,1.1c-0.3,0-0.5-0.2-0.5-0.6c0-0.1,0-0.4,0-0.9v-9.5h-2.3v10.2c0,0.9,0.1,1.5,0.2,1.9c0.2,0.7,0.8,1,1.5,1
	c0.9,0,1.7-0.5,2.7-1.6v1.4H43.6z"/>
<g>
	<path fill="#FFFFFF" d="M36.3,39.3c-0.4,0-0.8,0.2-1.2,0.6v7.8c0.4,0.4,0.8,0.6,1.2,0.6c0.7,0,1-0.6,1-1.7V41
		C37.3,39.9,36.9,39.3,36.3,39.3z"/>
	<path fill="#FFFFFF" d="M44.9,39.3c-0.8,0-1.2,0.6-1.2,1.8v1.2H46v-1.2C46,39.9,45.7,39.3,44.9,39.3z"/>
	<path fill="#FFFFFF" d="M50.6,32.8c-0.5-2-2.1-3.6-4.2-3.8c-4.8-0.5-9.6-0.5-14.4-0.5c-4.8,0-9.6,0-14.4,0.5
		c-2,0.2-3.7,1.7-4.2,3.8c-0.7,2.9-0.7,6.1-0.7,9.1c0,3,0,6.2,0.7,9.1c0.5,2,2.1,3.6,4.2,3.8c4.8,0.5,9.6,0.5,14.4,0.5
		c4.8,0,9.6,0,14.4-0.5c2-0.2,3.7-1.7,4.2-3.8c0.7-2.9,0.7-6.1,0.7-9.1C51.2,38.9,51.2,35.7,50.6,32.8z M23.7,35.4H21v14.8h-2.6
		V35.4h-2.7V33h8.1V35.4z M30.8,50.2h-2.3v-1.4c-0.9,1.1-1.8,1.6-2.7,1.6c-0.7,0-1.3-0.3-1.5-1c-0.1-0.4-0.2-1-0.2-1.9V37.4h2.3v9.4
		c0,0.5,0,0.8,0,0.9c0.1,0.4,0.2,0.5,0.5,0.5c0.5,0,1-0.4,1.5-1.1v-9.8h2.3V50.2z M39.6,46.3c0,1.2-0.1,2-0.2,2.6
		c-0.3,1-0.9,1.4-1.9,1.4c-0.8,0-1.6-0.5-2.4-1.4v1.2h-2.3V33h2.3v5.6c0.8-0.9,1.5-1.4,2.4-1.4c0.9,0,1.5,0.5,1.9,1.4
		c0.2,0.5,0.2,1.4,0.2,2.6V46.3z M48.4,44.2h-4.6v2.3c0,1.2,0.4,1.8,1.2,1.8c0.6,0,0.9-0.3,1-0.9c0-0.1,0-0.6,0-1.6h2.4v0.3
		c0,0.7,0,1.3-0.1,1.5c-0.1,0.5-0.3,1-0.5,1.4c-0.6,0.9-1.6,1.4-2.8,1.4c-1.2,0-2.1-0.4-2.8-1.3c-0.5-0.6-0.7-1.7-0.7-3v-4.5
		c0-1.4,0.2-2.4,0.7-3c0.7-0.9,1.6-1.3,2.8-1.3c1.2,0,2.1,0.4,2.7,1.3c0.5,0.6,0.7,1.7,0.7,3V44.2z"/>
</g>
</svg>
