<?xml version="1.0" encoding="utf-8"?>
<!-- Generator: Adobe Illustrator 18.0.0, SVG Export Plug-In . SVG Version: 6.00 Build 0)  -->
<!DOCTYPE svg PUBLIC "-//W3C//DTD SVG 1.1//EN" "http://www.w3.org/Graphics/SVG/1.1/DTD/svg11.dtd">
<svg version="1.1" id="Camada_1" xmlns="http://www.w3.org/2000/svg" xmlns:xlink="http://www.w3.org/1999/xlink" x="0px" y="0px"
	 viewBox="0 0 64 64" enable-background="new 0 0 64 64" xml:space="preserve">
<circle opacity="0" fill="#3E3F3F" cx="32" cy="32" r="32"/>
<g>
	<path fill="#FFFFFF" d="M13.3,47.7c0-10.5,0-21,0-31.5c0.6-1.4,1.5-2.3,2.9-2.9c10.5,0,21,0,31.5,0c2.2,0.9,3,2.6,2.9,4.9
		c-0.1,9.3,0,18.6,0,27.8c0,3.1-1.5,4.5-4.5,4.5c-9.3,0-18.6,0-27.8,0C15.9,50.7,14.2,49.9,13.3,47.7z M32,46.9c4.4,0,8.7,0,13.1,0
		c1.4,0,1.9-0.4,1.9-1.8c-0.1-4.1,0-8.3,0-12.4c0-2.9,0-2.9-2.9-2.7c-0.7,0-0.9,0.2-0.9,0.9c0.1,1.3,0,2.6-0.3,3.9
		c-1.3,5.3-6.7,8.9-12.3,8.2c-5.2-0.6-9.5-5.4-9.6-10.6c0-2.4,0-2.4-2.5-2.4c-1.1,0-1.4,0.4-1.4,1.4c0.1,4.6,0.1,9.2,0,13.8
		c0,1.3,0.4,1.7,1.7,1.7C23.1,46.9,27.6,46.9,32,46.9z M32,39.5c4,0,7.5-3.5,7.6-7.5c0-4-3.4-7.5-7.5-7.6c-4-0.1-7.7,3.5-7.6,7.6
		C24.5,36,28,39.5,32,39.5z M44.1,22.6c3,0,2.9,0.5,2.9-2.9c0-2.9,0.2-2.7-2.7-2.7c-3.4,0-2.9-0.1-2.9,2.9
		C41.3,22.9,41.1,22.6,44.1,22.6z"/>
</g>
</svg>
